<svg xmlns:dc="http://purl.org/dc/elements/1.1/" xmlns:cc="http://creativecommons.org/ns#" xmlns:rdf="http://www.w3.org/1999/02/22-rdf-syntax-ns#" xmlns:svg="http://www.w3.org/2000/svg" xmlns="http://www.w3.org/2000/svg" xmlns:sodipodi="http://sodipodi.sourceforge.net/DTD/sodipodi-0.dtd" xmlns:inkscape="http://www.inkscape.org/namespaces/inkscape" viewBox="0 0 25.23715 18.81728" version="1.1" x="0px" y="0px"><g transform="translate(-124.14944,-130.55151)"><path style="" d="m 148.43042,130.55505 a 2.3127134,14.511142 60 0 0 -7.28225,2.58905 6.3486245,6.3486245 0 0 0 -4.24562,-1.64101 6.3486245,6.3486245 0 0 0 -6.34857,6.34857 6.3486245,6.3486245 0 0 0 0.13712,1.29311 2.3127134,14.511142 60 0 0 -6.49159,6.18918 2.3127134,14.511142 60 0 0 13.72339,-5.25269 2.3127134,14.511142 60 0 0 11.4106,-9.25841 2.3127134,14.511142 60 0 0 -0.90308,-0.2678 z m -0.44128,0.57451 a 1.6778507,13.471711 60 0 1 0.45778,0.15282 1.6778507,13.471711 60 0 1 -10.82791,8.18895 1.6778507,13.471711 60 0 1 -12.50582,5.28274 1.6778507,13.471711 60 0 1 5.72509,-5.03774 6.3486245,6.3486245 0 0 0 1.28399,2.30098 c 0.46121,-0.17534 0.74224,-0.30318 1.09965,-0.48502 0.078,-0.0397 0.16441,-0.0849 0.25022,-0.1296 a 5.3674345,5.3674345 0 0 1 -1.7898,-3.99365 5.3674345,5.3674345 0 0 1 5.36739,-5.3674 5.3674345,5.3674345 0 0 1 5.23914,4.23193 c 0.22409,-0.14893 0.43848,-0.29443 0.62764,-0.43122 a 6.3486245,6.3486245 0 0 0 -1.35497,-2.28636 1.6778507,13.471711 60 0 1 6.4276,-2.42643 z m -4.77706,6.08131 c -0.18904,0.13292 -0.46111,0.31931 -0.81266,0.55224 a 5.3674345,5.3674345 0 0 1 -5.34969,5.01332 5.3674345,5.3674345 0 0 1 -2.33372,-0.54136 c -0.50506,0.25653 -1.03521,0.51708 -1.5542,0.73779 a 6.3486245,6.3486245 0 0 0 3.74074,1.22737 6.3486245,6.3486245 0 0 0 6.34871,-6.34857 6.3486245,6.3486245 0 0 0 -0.0392,-0.64079 z" fill="#000000" fill-opacity="1" stroke="none"/></g><text x="0" y="30.053824" fill="#000000" font-size="5px" font-weight="bold" font-family="'Helvetica Neue', Helvetica, Arial-Unicode, Arial, Sans-serif">Created by Viktor Korobkov</text><text x="0" y="35.053824" fill="#000000" font-size="5px" font-weight="bold" font-family="'Helvetica Neue', Helvetica, Arial-Unicode, Arial, Sans-serif">from the Noun Project</text></svg>